<?xml version="1.0" standalone="no"?><svg xmlns="http://www.w3.org/2000/svg" viewBox="0 0 1440 320"><path fill="#00cba9" fill-opacity="1" d="M0,64L21.8,53.3C43.6,43,87,21,131,16C174.5,11,218,21,262,26.7C305.5,32,349,32,393,48C436.4,64,480,96,524,128C567.3,160,611,192,655,176C698.2,160,742,96,785,74.7C829.1,53,873,75,916,117.3C960,160,1004,224,1047,224C1090.9,224,1135,160,1178,133.3C1221.8,107,1265,117,1309,112C1352.7,107,1396,85,1418,74.7L1440,64L1440,320L1418.2,320C1396.4,320,1353,320,1309,320C1265.5,320,1222,320,1178,320C1134.5,320,1091,320,1047,320C1003.6,320,960,320,916,320C872.7,320,829,320,785,320C741.8,320,698,320,655,320C610.9,320,567,320,524,320C480,320,436,320,393,320C349.1,320,305,320,262,320C218.2,320,175,320,131,320C87.3,320,44,320,22,320L0,320Z"></path></svg>