<?xml version="1.0" standalone="no"?><svg xmlns="http://www.w3.org/2000/svg" viewBox="0 0 1440 320"><path fill="#00cba9" fill-opacity="1" d="M0,288L21.8,266.7C43.6,245,87,203,131,197.3C174.5,192,218,224,262,208C305.5,192,349,128,393,85.3C436.4,43,480,21,524,26.7C567.3,32,611,64,655,96C698.2,128,742,160,785,154.7C829.1,149,873,107,916,101.3C960,96,1004,128,1047,160C1090.9,192,1135,224,1178,202.7C1221.8,181,1265,107,1309,96C1352.7,85,1396,139,1418,165.3L1440,192L1440,0L1418.2,0C1396.4,0,1353,0,1309,0C1265.5,0,1222,0,1178,0C1134.5,0,1091,0,1047,0C1003.6,0,960,0,916,0C872.7,0,829,0,785,0C741.8,0,698,0,655,0C610.9,0,567,0,524,0C480,0,436,0,393,0C349.1,0,305,0,262,0C218.2,0,175,0,131,0C87.3,0,44,0,22,0L0,0Z"></path></svg>