<svg xmlns="http://www.w3.org/2000/svg" fill="none" viewBox="0 0 181 181" height="181" width="181">
<rect fill="white" transform="translate(0.103271 0.511719)" height="180" width="180"></rect>
<path stroke-linejoin="round" stroke-linecap="round" stroke-width="2.5" stroke="#3374D6" d="M54.5413 21.3552C53.6115 21.3595 52.6906 21.5368 51.8256 21.8781C51.3693 18.9219 49.8703 16.2265 47.5996 14.2794C45.329 12.3323 42.4365 11.262 39.4453 11.262C36.4541 11.262 33.5616 12.3323 31.2909 14.2794C29.0202 16.2265 27.5212 18.9219 27.065 21.8781C26.0319 21.4788 24.9236 21.312 23.8188 21.3895C22.714 21.4671 21.6398 21.7871 20.6727 22.3268C19.7056 22.8666 18.8692 23.6128 18.2232 24.5124C17.5771 25.4119 17.1372 26.4428 16.9347 27.5317C16.7322 28.6206 16.7721 29.7407 17.0516 30.8124C17.331 31.8841 17.8432 32.8811 18.5516 33.7324C19.26 34.5837 20.1473 35.2685 21.1504 35.7381C22.1534 36.2077 23.2476 36.4505 24.3552 36.4492H54.5413C55.5426 36.4654 56.537 36.2822 57.4668 35.9103C58.3965 35.5384 59.243 34.9851 59.9568 34.2828C60.6705 33.5805 61.2374 32.7431 61.6244 31.8195C62.0113 30.8959 62.2106 29.9046 62.2106 28.9032C62.2106 27.9018 62.0113 26.9104 61.6244 25.9868C61.2374 25.0632 60.6705 24.2259 59.9568 23.5236C59.243 22.8212 58.3965 22.268 57.4668 21.8961C56.537 21.5241 55.5426 21.3409 54.5413 21.3571V21.3552Z"></path>
<path stroke-linejoin="round" stroke-linecap="round" stroke-width="2.5" stroke="#3374D6" d="M163.959 39.5946C163.029 39.5989 162.108 39.7769 161.243 40.1196C160.787 37.1634 159.288 34.468 157.017 32.5209C154.747 30.5738 151.854 29.5034 148.863 29.5034C145.872 29.5034 142.979 30.5738 140.709 32.5209C138.438 34.468 136.939 37.1634 136.483 40.1196C135.618 39.7771 134.697 39.5991 133.767 39.5946C131.765 39.5946 129.846 40.3898 128.43 41.8051C127.015 43.2204 126.22 45.1401 126.22 47.1417C126.22 49.1433 127.015 51.0629 128.43 52.4782C129.846 53.8936 131.765 54.6887 133.767 54.6887H163.959C165.961 54.6887 167.88 53.8936 169.296 52.4782C170.711 51.0629 171.506 49.1433 171.506 47.1417C171.506 45.1401 170.711 43.2204 169.296 41.8051C167.88 40.3898 165.961 39.5946 163.959 39.5946V39.5946Z"></path>
<path stroke-linejoin="round" stroke-linecap="round" stroke-width="2.5" stroke="#3374D6" d="M143.063 105.618H117.584L92.7239 76.3884L104.67 60.0345C104.966 59.6402 105.349 59.32 105.789 59.0995C106.229 58.879 106.715 58.7642 107.208 58.7642C107.7 58.7642 108.186 58.879 108.627 59.0995C109.067 59.32 109.45 59.6402 109.745 60.0345L143.063 105.618Z"></path>
<path stroke-linejoin="round" stroke-linecap="round" stroke-width="2.5" stroke="#3374D6" d="M78.2774 82.9705L75.4646 79.6942"></path>
<path stroke-linejoin="round" stroke-linecap="round" stroke-width="2.5" stroke="#3374D6" d="M80.1149 74.2347L83.1119 70.7049C83.4053 70.3609 83.7697 70.0843 84.1799 69.8942C84.5902 69.7041 85.0367 69.605 85.4889 69.6035C85.9455 69.6044 86.3966 69.7031 86.8117 69.8931C87.2269 70.0831 87.5965 70.3599 87.8956 70.7049L92.7111 76.3879L117.579 105.617H63.1687V98.3991"></path>
<path stroke-linejoin="round" stroke-linecap="round" stroke-width="2.5" stroke="#3374D6" d="M53.4298 105.621L57.8134 100.473"></path>
<path stroke-linejoin="round" stroke-linecap="round" stroke-width="2.5" stroke="#3374D6" d="M63.1716 105.62H53.4298"></path>
<path stroke-linejoin="round" stroke-linecap="round" stroke-width="2.5" stroke="#3374D6" d="M63.1687 94.3142V105.623"></path>
<path stroke-linejoin="round" stroke-linecap="round" stroke-width="2.5" stroke="#3374D6" d="M29.2262 105.626V90.5336"></path>
<path stroke-linejoin="round" stroke-linecap="round" stroke-width="2.5" stroke="#3374D6" d="M44.3179 79.2109L32.9973 66.0045H40.5444L29.2258 52.7982L17.9052 66.0045H25.4523L14.1317 79.2109H23.5645L14.1317 90.5314H29.2258H44.3179L34.8851 79.2109H44.3179Z"></path>
<path stroke-linejoin="round" stroke-linecap="round" stroke-width="2.5" stroke="#3374D6" d="M131.114 145.57V145.635C122.762 155.822 111.55 163.274 98.9228 167.028C86.2958 170.782 72.8337 170.667 60.2727 166.698C47.7117 162.728 36.6281 155.086 28.4514 144.758C20.2747 134.43 15.38 121.888 14.3987 108.752C14.3668 108.353 14.4172 107.951 14.5467 107.572C14.6762 107.193 14.882 106.845 15.1514 106.549C15.4279 106.258 15.7605 106.025 16.1292 105.865C16.4978 105.706 16.8949 105.622 17.2966 105.62H143.061C143.458 105.626 143.849 105.711 144.213 105.87C144.576 106.03 144.904 106.261 145.176 106.549C145.446 106.845 145.653 107.193 145.783 107.572C145.912 107.951 145.963 108.352 145.931 108.752C144.916 122.261 139.74 135.123 131.114 145.57V145.57Z"></path>
<path stroke-linejoin="round" stroke-linecap="round" stroke-width="2.5" stroke="#3374D6" d="M78.2821 116.289C78.2818 117.69 78.005 119.077 77.4676 120.371C76.9302 121.665 76.1427 122.839 75.1503 123.828C71.1223 127.883 68.8609 133.366 68.8592 139.081V144.388C68.8462 145.941 68.2802 147.439 67.2627 148.614C66.2452 149.788 64.8427 150.561 63.3067 150.795C61.7706 151.029 60.2015 150.708 58.8806 149.89C57.5597 149.072 56.5734 147.81 56.0985 146.331L49.7777 126.126C49.2936 124.561 48.3205 123.193 47.0013 122.223C45.682 121.252 44.0863 120.731 42.4485 120.734C40.4448 120.734 38.5232 119.938 37.1064 118.521C35.6895 117.105 34.8936 115.183 34.8936 113.179C34.8936 111.176 35.6895 109.254 37.1064 107.837C38.5232 106.42 40.4448 105.624 42.4485 105.624H67.6112C70.4395 105.627 73.1512 106.751 75.1517 108.75C77.1521 110.75 78.2779 113.461 78.2821 116.289V116.289Z"></path>
<path stroke-linejoin="round" stroke-linecap="round" stroke-width="2.5" stroke="#3374D6" d="M131.104 145.635V133.354C131.104 131.942 130.826 130.545 130.286 129.241C129.746 127.937 128.954 126.752 127.956 125.755C126.958 124.757 125.773 123.965 124.469 123.426C123.165 122.886 121.767 122.609 120.356 122.61C118.202 122.61 116.136 123.465 114.613 124.988C113.09 126.511 112.234 128.577 112.234 130.731C112.234 132.672 111.54 134.548 110.276 136.021C109.012 137.494 107.263 138.465 105.345 138.759L103.344 139.067C98.8493 139.758 94.7053 141.905 91.5474 145.178C88.3896 148.451 86.3921 152.669 85.8613 157.185L84.4093 169.57C93.4193 169.002 102.216 166.584 110.25 162.466C118.284 158.348 125.383 152.619 131.104 145.635Z"></path>
<path stroke-linejoin="round" stroke-linecap="round" stroke-width="2.5" stroke="#3374D6" d="M78.2764 94.3086H48.0902L57.5151 82.9703H48.0902L59.3989 69.7778H51.8598L63.1684 56.5834L74.5068 69.7778H66.9677L75.4636 79.6939L78.2764 82.9703H72.6805"></path>
<path stroke-linejoin="round" stroke-linecap="round" stroke-width="2.5" stroke="#3374D6" d="M70.7424 85.2672L78.2815 94.3137"></path>
<path stroke-linejoin="round" stroke-linecap="round" stroke-width="2.5" stroke="#3374D6" d="M72.6831 82.9716H68.8561L70.7399 85.2634"></path>
</svg>
