<?xml version="1.0" standalone="no"?>
<svg viewBox="0 0 200 200" xmlns="http://www.w3.org/2000/svg">
  <path fill="#D0E2FF" d="M41.6,-65.1C54.7,-56.3,66.7,-46.1,70.6,-33.5C74.4,-20.8,70,-5.7,66.2,8.3C62.3,22.3,58.9,35.3,50.6,42.5C42.3,49.8,28.9,51.5,15.6,57.5C2.2,63.5,-11.2,73.8,-22.1,72C-32.9,70.3,-41.1,56.5,-45.3,43.7C-49.5,30.9,-49.8,19,-54.6,5.9C-59.5,-7.2,-69,-21.5,-65,-29.4C-60.9,-37.3,-43.4,-38.8,-30.3,-47.6C-17.2,-56.4,-8.6,-72.5,2.8,-76.9C14.2,-81.3,28.5,-73.9,41.6,-65.1Z" transform="translate(100 100)" />
</svg>
